<mxfile host="app.diagrams.net" modified="2024-03-04T22:48:21.980Z" agent="Mozilla/5.0 (Macintosh; Intel Mac OS X 10_15_7) AppleWebKit/605.1.15 (KHTML, like Gecko) Version/17.3.1 Safari/605.1.15" etag="P8nRfWlLSkBelpHO9wyK" version="24.0.1" type="github">
  <diagram name="Страница — 1" id="creAUHm_wXwRZB3ByyH9">
    <mxGraphModel dx="1242" dy="568" grid="0" gridSize="10" guides="1" tooltips="1" connect="1" arrows="1" fold="1" page="0" pageScale="1" pageWidth="827" pageHeight="1169" math="0" shadow="0">
      <root>
        <mxCell id="0" />
        <mxCell id="1" parent="0" />
        <mxCell id="fNEtFfUCMttPgWEzefCz-1" value="Купить&lt;div&gt;&amp;nbsp;товар&lt;/div&gt;" style="rounded=0;whiteSpace=wrap;html=1;" vertex="1" parent="1">
          <mxGeometry x="400" y="200" width="120" height="310" as="geometry" />
        </mxCell>
        <mxCell id="fNEtFfUCMttPgWEzefCz-2" value="&lt;span style=&quot;caret-color: rgba(0, 0, 0, 0); color: rgba(0, 0, 0, 0); font-family: monospace; font-size: 0px; text-align: start; white-space: nowrap;&quot;&gt;%3CmxGraphModel%3E%3Croot%3E%3CmxCell%20id%3D%220%22%2F%3E%3CmxCell%20id%3D%221%22%20parent%3D%220%22%2F%3E%3CmxCell%20id%3D%222%22%20value%3D%22%22%20style%3D%22rounded%3D0%3BwhiteSpace%3Dwrap%3Bhtml%3D1%3B%22%20vertex%3D%221%22%20parent%3D%221%22%3E%3CmxGeometry%20x%3D%2280%22%20y%3D%22320%22%20width%3D%22210%22%20height%3D%2280%22%20as%3D%22geometry%22%2F%3E%3C%2FmxCell%3E%3C%2Froot%3E%3C%2FmxGraphModel%3E&lt;/span&gt;" style="rounded=0;whiteSpace=wrap;html=1;" vertex="1" parent="1">
          <mxGeometry x="80" y="200" width="210" height="80" as="geometry" />
        </mxCell>
        <mxCell id="fNEtFfUCMttPgWEzefCz-3" value="" style="rounded=0;whiteSpace=wrap;html=1;" vertex="1" parent="1">
          <mxGeometry x="80" y="320" width="210" height="80" as="geometry" />
        </mxCell>
        <mxCell id="fNEtFfUCMttPgWEzefCz-4" value="" style="rounded=0;whiteSpace=wrap;html=1;" vertex="1" parent="1">
          <mxGeometry x="80" y="430" width="210" height="80" as="geometry" />
        </mxCell>
        <mxCell id="fNEtFfUCMttPgWEzefCz-5" value="Обеспечивает работу всей информационной системы интернет-магазина и поддержку его физической инфраструктуры." style="text;whiteSpace=wrap;fontSize=10;" vertex="1" parent="1">
          <mxGeometry x="95" y="210" width="170" height="50" as="geometry" />
        </mxCell>
        <mxCell id="fNEtFfUCMttPgWEzefCz-6" value="Выполнять различные функции, от обслуживания сайта до управления складом и доставки товаров" style="text;whiteSpace=wrap;fontSize=10;" vertex="1" parent="1">
          <mxGeometry x="95" y="335" width="180" height="50" as="geometry" />
        </mxCell>
        <mxCell id="fNEtFfUCMttPgWEzefCz-7" value="Технические средства, необходимые для функционирования интернет-магазина" style="text;whiteSpace=wrap;fontSize=10;" vertex="1" parent="1">
          <mxGeometry x="95" y="445" width="180" height="50" as="geometry" />
        </mxCell>
        <mxCell id="fNEtFfUCMttPgWEzefCz-8" value="" style="endArrow=classic;html=1;rounded=0;" edge="1" parent="1">
          <mxGeometry width="50" height="50" relative="1" as="geometry">
            <mxPoint x="290" y="240" as="sourcePoint" />
            <mxPoint x="400" y="240" as="targetPoint" />
          </mxGeometry>
        </mxCell>
        <mxCell id="fNEtFfUCMttPgWEzefCz-11" value="Э" style="text;whiteSpace=wrap;fontSize=10;align=center;" vertex="1" parent="1">
          <mxGeometry x="341" y="260" width="17" height="20" as="geometry" />
        </mxCell>
        <mxCell id="fNEtFfUCMttPgWEzefCz-14" value="" style="endArrow=classic;html=1;rounded=0;" edge="1" parent="1">
          <mxGeometry width="50" height="50" relative="1" as="geometry">
            <mxPoint y="240" as="sourcePoint" />
            <mxPoint x="80" y="240" as="targetPoint" />
          </mxGeometry>
        </mxCell>
        <mxCell id="fNEtFfUCMttPgWEzefCz-15" value="" style="endArrow=classic;html=1;rounded=0;" edge="1" parent="1">
          <mxGeometry width="50" height="50" relative="1" as="geometry">
            <mxPoint y="360" as="sourcePoint" />
            <mxPoint x="80" y="359.65999999999997" as="targetPoint" />
          </mxGeometry>
        </mxCell>
        <mxCell id="fNEtFfUCMttPgWEzefCz-16" value="" style="endArrow=classic;html=1;rounded=0;" edge="1" parent="1">
          <mxGeometry width="50" height="50" relative="1" as="geometry">
            <mxPoint y="470" as="sourcePoint" />
            <mxPoint x="80" y="469.65999999999997" as="targetPoint" />
          </mxGeometry>
        </mxCell>
        <mxCell id="fNEtFfUCMttPgWEzefCz-17" value="Ф" style="text;whiteSpace=wrap;fontSize=10;" vertex="1" parent="1">
          <mxGeometry x="-15" y="227" width="15" height="20" as="geometry" />
        </mxCell>
        <mxCell id="fNEtFfUCMttPgWEzefCz-18" value="Ф" style="text;whiteSpace=wrap;fontSize=10;" vertex="1" parent="1">
          <mxGeometry x="-15" y="347" width="15" height="20" as="geometry" />
        </mxCell>
        <mxCell id="fNEtFfUCMttPgWEzefCz-19" value="Ф" style="text;whiteSpace=wrap;fontSize=10;" vertex="1" parent="1">
          <mxGeometry x="-15" y="457" width="15" height="20" as="geometry" />
        </mxCell>
        <mxCell id="fNEtFfUCMttPgWEzefCz-20" value="" style="endArrow=none;html=1;rounded=0;" edge="1" parent="1" source="fNEtFfUCMttPgWEzefCz-11">
          <mxGeometry width="50" height="50" relative="1" as="geometry">
            <mxPoint x="305" y="297" as="sourcePoint" />
            <mxPoint x="350" y="240" as="targetPoint" />
          </mxGeometry>
        </mxCell>
        <mxCell id="fNEtFfUCMttPgWEzefCz-21" value="" style="endArrow=classic;html=1;rounded=0;" edge="1" parent="1">
          <mxGeometry width="50" height="50" relative="1" as="geometry">
            <mxPoint x="290" y="360" as="sourcePoint" />
            <mxPoint x="400" y="360" as="targetPoint" />
          </mxGeometry>
        </mxCell>
        <mxCell id="fNEtFfUCMttPgWEzefCz-22" value="" style="endArrow=none;html=1;rounded=0;" edge="1" parent="1">
          <mxGeometry width="50" height="50" relative="1" as="geometry">
            <mxPoint x="350" y="380" as="sourcePoint" />
            <mxPoint x="350" y="360" as="targetPoint" />
          </mxGeometry>
        </mxCell>
        <mxCell id="fNEtFfUCMttPgWEzefCz-23" value="П" style="text;whiteSpace=wrap;fontSize=10;align=center;" vertex="1" parent="1">
          <mxGeometry x="341" y="380" width="17" height="20" as="geometry" />
        </mxCell>
        <mxCell id="fNEtFfUCMttPgWEzefCz-25" value="" style="endArrow=classic;html=1;rounded=0;" edge="1" parent="1">
          <mxGeometry width="50" height="50" relative="1" as="geometry">
            <mxPoint x="290" y="468" as="sourcePoint" />
            <mxPoint x="400" y="468" as="targetPoint" />
          </mxGeometry>
        </mxCell>
        <mxCell id="fNEtFfUCMttPgWEzefCz-26" value="О" style="text;whiteSpace=wrap;fontSize=10;align=center;" vertex="1" parent="1">
          <mxGeometry x="341" y="488" width="19" height="20" as="geometry" />
        </mxCell>
        <mxCell id="fNEtFfUCMttPgWEzefCz-27" value="" style="endArrow=none;html=1;rounded=0;" edge="1" parent="1" source="fNEtFfUCMttPgWEzefCz-26">
          <mxGeometry width="50" height="50" relative="1" as="geometry">
            <mxPoint x="305" y="525" as="sourcePoint" />
            <mxPoint x="350" y="468" as="targetPoint" />
          </mxGeometry>
        </mxCell>
      </root>
    </mxGraphModel>
  </diagram>
</mxfile>
